<?xml version="1.0" encoding="iso-8859-1"?>
<!-- Generator: Adobe Illustrator 21.0.0, SVG Export Plug-In . SVG Version: 6.00 Build 0)  -->
<svg version="1.1" id="Capa_1" xmlns="http://www.w3.org/2000/svg" xmlns:xlink="http://www.w3.org/1999/xlink" x="0px" y="0px"
	 viewBox="0 0 512.013 512.013" style="enable-background:new 0 0 512.013 512.013;" xml:space="preserve">
<g>
	<g>
		<polygon style="fill:#F0C419;" points="167.693,0 180.175,22.828 203.003,35.31 180.175,47.793 167.693,70.621 155.211,47.793 
			132.383,35.31 155.211,22.828 		"/>
		<polygon style="fill:#F0C419;" points="476.659,70.621 489.141,93.449 511.969,105.931 489.141,118.413 476.659,141.241 
			464.176,118.413 441.348,105.931 464.176,93.449 		"/>
	</g>
	<polygon style="fill:#2FA8CC;" points="406.038,65.677 400.476,74.505 353.072,150.069 300.107,150.069 252.703,74.505 
		247.141,65.677 257.823,56.85 326.59,0 395.357,56.85 	"/>
	<path style="fill:#F0C419;" d="M326.59,141.241c-24.228-0.033-48.225,4.707-70.621,13.948
		c-77.493-31.889-166.742-7.827-217.704,58.693s-50.961,158.956,0,225.477s140.211,90.582,217.704,58.693
		c69.281,28.51,148.912,12.516,201.813-40.533s68.67-132.725,39.965-201.926C469.043,186.393,401.507,141.272,326.59,141.241z
		 M326.59,326.621c-0.004,50.422-26.931,97.004-70.621,122.174c-43.691-25.168-70.617-71.752-70.617-122.174
		s26.926-97.006,70.617-122.174C299.659,229.617,326.585,276.199,326.59,326.621z M185.348,467.862
		c-78.005,0-141.241-63.236-141.241-141.241s63.236-141.241,141.241-141.241c6.529-0.022,13.051,0.45,19.509,1.412
		c-40.448,35.207-63.669,86.204-63.669,139.829s23.221,104.622,63.669,139.829C198.399,467.412,191.878,467.884,185.348,467.862z
		 M326.59,467.862c-6.529,0.022-13.051-0.45-19.509-1.412c40.448-35.207,63.669-86.204,63.669-139.829
		s-23.221-104.622-63.669-139.829c6.458-0.963,12.98-1.435,19.509-1.412c78.005,0,141.241,63.236,141.241,141.241
		S404.595,467.862,326.59,467.862z"/>
	<g>
		<path style="fill:#67B9CC;" d="M335.417,65.677c0,4.875-3.952,8.828-8.828,8.828h-73.887l-5.561-8.828l10.681-8.828h68.767
			C331.465,56.85,335.417,60.802,335.417,65.677z"/>
		<path style="fill:#67B9CC;" d="M406.038,65.677l-5.561,8.828H361.9c-4.875,0-8.828-3.952-8.828-8.828s3.952-8.828,8.828-8.828
			h33.457L406.038,65.677z"/>
		<path style="fill:#67B9CC;" d="M335.417,94.349h-17.655c-4.875,0-8.828,3.952-8.828,8.828c0,4.875,3.952,8.828,8.828,8.828h17.655
			c4.875,0,8.828-3.952,8.828-8.828C344.245,98.301,340.293,94.349,335.417,94.349z"/>
	</g>
	<g>
		<path style="fill:#F29C1F;" d="M255.969,448.794l-51.112,17.655c-40.448-35.207-63.669-86.204-63.669-139.829
			s23.221-104.622,63.669-139.829c18.037,2.446,35.41,8.447,51.112,17.655c-43.691,25.168-70.617,71.752-70.617,122.174
			S212.278,423.626,255.969,448.794z"/>
		<path style="fill:#F29C1F;" d="M511.969,326.621c-0.02,61.845-30.871,119.61-82.258,154.022
			c-51.388,34.412-116.548,40.941-173.742,17.41l51.112-31.603c6.458,0.963,12.98,1.435,19.509,1.412
			c78.005,0,141.241-63.236,141.241-141.241S404.595,185.379,326.59,185.379c-6.529-0.022-13.051,0.45-19.509,1.412
			c-15.185-13.272-32.453-23.949-51.112-31.603c57.194-23.532,122.354-17.002,173.742,17.41S511.948,264.775,511.969,326.621z"/>
		<path style="fill:#F29C1F;" d="M255.969,448.794c15.701,9.209,33.074,15.21,51.112,17.655l-51.112,31.603
			c-18.658-7.654-35.927-18.331-51.112-31.603L255.969,448.794z"/>
	</g>
</g>
<g>
</g>
<g>
</g>
<g>
</g>
<g>
</g>
<g>
</g>
<g>
</g>
<g>
</g>
<g>
</g>
<g>
</g>
<g>
</g>
<g>
</g>
<g>
</g>
<g>
</g>
<g>
</g>
<g>
</g>
</svg>
